<svg width="54" height="47" viewBox="0 0 54 47" fill="none" xmlns="http://www.w3.org/2000/svg">
<path fill-rule="evenodd" clip-rule="evenodd" d="M20.4842 22.9052C21.8143 22.9052 22.8961 21.7534 22.8961 20.3374C22.8961 18.9215 21.8143 17.7697 20.4842 17.7697C19.1542 17.7697 18.0723 18.9215 18.0723 20.3374C18.0723 21.7528 19.1542 22.9052 20.4842 22.9052ZM20.4842 19.57C20.8815 19.57 21.2045 19.9139 21.2045 20.3368C21.2045 20.7598 20.8815 21.1037 20.4842 21.1037C20.0869 21.1037 19.7639 20.7598 19.7639 20.3368C19.7639 19.9139 20.0869 19.57 20.4842 19.57ZM18.5312 26.6523C20.3316 27.7587 22.5179 27.8114 24.3523 26.8221L28.1616 29.1636C28.3683 29.2905 28.6165 29.3187 28.8433 29.2409L29.8884 28.8829L30.1198 30.0255C30.1699 30.2737 30.3168 30.4882 30.524 30.6157C30.7307 30.7426 30.9783 30.7708 31.2058 30.693L32.2508 30.335L32.4823 31.4776C32.5324 31.7264 32.6792 31.9404 32.8865 32.0679L33.6897 32.5613C33.8192 32.641 33.9655 32.6821 34.1129 32.6821C34.1762 32.6821 34.2395 32.6747 34.3023 32.6594L37.871 31.7859C38.0995 31.7301 38.2965 31.575 38.4139 31.3587C38.5314 31.1423 38.559 30.8836 38.4899 30.6446L37.4161 26.9159C37.3533 26.6982 37.2157 26.5137 37.0303 26.3997L27.6935 20.6605C27.5812 18.4746 26.4452 16.4849 24.6454 15.3785C21.7262 13.5843 17.9796 14.6528 16.2937 17.7605C14.6078 20.8689 15.612 24.8575 18.5312 26.6523ZM17.7585 18.6616C18.9774 16.4138 21.687 15.6409 23.799 16.9385C25.2096 17.8059 26.0566 19.4229 26.0088 21.1582C25.9996 21.4892 26.162 21.7988 26.4314 21.9643L35.896 27.782L36.606 30.2455L34.247 30.8229L34.057 30.7059L33.7081 28.9822C33.658 28.7333 33.5112 28.5194 33.3039 28.3919C33.0972 28.265 32.8496 28.2368 32.6222 28.3147L31.5771 28.6726L31.3457 27.5301C31.2956 27.2818 31.1488 27.0673 30.9415 26.9398C30.7348 26.8129 30.4872 26.7847 30.2598 26.8625L28.6827 27.4026L24.7824 25.0052C24.5129 24.8397 24.1801 24.8446 23.9153 25.0187C22.5271 25.9308 20.7882 25.9584 19.3776 25.0917C17.2656 23.7946 16.5396 20.9093 17.7585 18.6616ZM35.7625 35.4711L27.26 37.9334C26.9847 38.0131 26.7141 38.0627 26.4447 38.0823C26.5518 37.9414 26.6514 37.7869 26.7418 37.6202C27.5392 36.1503 27.0734 34.2458 25.6818 33.2852C25.6495 33.2632 25.6167 33.2436 25.5821 33.2264C23.5836 32.2242 21.706 30.8309 20.1969 29.7116C19.6701 29.3205 19.172 28.9509 18.7425 28.6542C16.9662 27.4271 15.0172 27.7526 13.3446 28.2325L7.19067 29.9985L7.02543 29.3187C6.75366 28.2006 5.67868 27.527 4.62847 27.8163L2.25166 28.471C1.20202 28.7603 0.568662 29.9047 0.840429 31.0228L4.03542 44.1649C4.16669 44.7049 4.48855 45.1591 4.94226 45.4435C5.24973 45.636 5.59174 45.7347 5.93836 45.7347C6.10303 45.7347 6.26886 45.7126 6.43238 45.6673L8.80918 45.0126C9.31644 44.8728 9.7431 44.5302 10.0103 44.0472C10.2774 43.5641 10.3523 43.0008 10.2204 42.4608L9.86919 41.0173L11.0783 40.6721L19.761 46.0087C20.7272 46.6026 21.7567 46.9024 22.8017 46.9024C23.3786 46.9024 23.9602 46.8111 24.5388 46.6272L40.0883 41.6848C41.5899 41.2073 42.5365 39.201 42.0741 37.4755C41.8513 36.6419 40.7355 34.0312 35.7625 35.4711ZM8.55239 43.1338C8.53051 43.1731 8.47984 43.2436 8.38541 43.2693L6.0086 43.924C5.91418 43.9497 5.8376 43.9148 5.80075 43.8915C5.7639 43.8682 5.69768 43.8142 5.6735 43.7137L2.47851 30.571C2.44109 30.4171 2.53149 30.2535 2.67601 30.2136L5.05224 29.559C5.07585 29.5522 5.0983 29.5498 5.1196 29.5498C5.18236 29.5498 5.23246 29.5737 5.26067 29.5915C5.29752 29.6148 5.36373 29.6687 5.38792 29.7692L8.58233 42.9119C8.60709 43.0125 8.57427 43.094 8.55239 43.1338ZM39.6046 39.9599L24.0552 44.9023C22.8685 45.2792 21.7089 45.1272 20.6069 44.4499L11.6213 38.9264C11.4272 38.8069 11.1964 38.775 10.9793 38.8363L9.44542 39.274L7.61445 31.7418L13.7851 29.9709C15.1635 29.5755 16.6064 29.3248 17.8218 30.1646C18.2277 30.4447 18.6918 30.7892 19.2296 31.1883C20.7767 32.3364 22.6981 33.7621 24.8037 34.8262C25.4175 35.2786 25.6219 36.0835 25.277 36.7197C24.9327 37.3548 24.3903 37.546 23.6637 37.2886C22.5317 36.6995 19.5739 34.8201 19.0799 34.5161C18.6751 34.2672 18.1581 34.4149 17.9243 34.8459C17.6905 35.2768 17.8293 35.8272 18.2341 36.0761C18.7177 36.3734 23.4662 39.1839 23.7051 39.2973C25.0519 39.9384 26.36 40.0604 27.7039 39.6712L36.2064 37.2089C38.5176 36.5395 40.1424 36.8313 40.4476 37.9702C40.6543 38.7413 40.2213 39.7637 39.6046 39.9599ZM4.99005 31.496C4.94111 31.9416 4.56225 32.2603 4.14366 32.2082C3.72507 32.1561 3.42567 31.7528 3.47461 31.3072C3.52355 30.8615 3.90241 30.5428 4.321 30.5949C4.73959 30.647 5.039 31.0503 4.99005 31.496ZM53.1596 16.165L49.9652 3.02224C49.6934 1.90418 48.6184 1.22992 47.5682 1.51985L45.192 2.1745C44.6847 2.31426 44.2581 2.65691 43.9909 3.13993C43.7237 3.62295 43.6489 4.18627 43.7807 4.7263L44.1314 6.16985L42.9222 6.51495L34.2395 1.17843C32.7408 0.25713 31.0883 0.0425904 29.4612 0.559938L13.9117 5.50232C12.4101 5.97983 11.4635 7.98608 11.9259 9.7116C12.1493 10.5458 13.2651 13.1571 18.2381 11.7166L26.7406 9.25432C27.0158 9.17463 27.2864 9.12498 27.5559 9.10537C27.4488 9.24635 27.3492 9.40082 27.2588 9.56755C26.4614 11.0381 26.9272 12.942 28.3188 13.9025C28.3511 13.9245 28.3839 13.9442 28.4184 13.9613C30.4169 14.9635 32.2946 16.3568 33.8031 17.4761C34.3305 17.8672 34.828 18.2368 35.2575 18.5335C36.1713 19.1642 37.1305 19.3849 38.0742 19.3849C38.9655 19.3849 39.843 19.1881 40.6554 18.9552L46.8093 17.1892L46.9746 17.869C47.2037 18.8118 48.0041 19.4388 48.8792 19.4388C49.0416 19.4388 49.2069 19.4174 49.3715 19.372L51.7483 18.7174C52.798 18.4274 53.4313 17.283 53.1596 16.165ZM40.2149 17.2162C38.8365 17.6116 37.3936 17.8623 36.1782 17.0225C35.7723 16.7424 35.3082 16.3979 34.7704 15.9988C33.2239 14.8507 31.3019 13.425 29.1963 12.3609C28.5825 11.9085 28.3787 11.1037 28.7236 10.4674C29.0679 9.83235 29.6103 9.6411 30.3369 9.89855C31.4689 10.4876 34.4267 12.367 34.9207 12.671C35.3254 12.9193 35.8425 12.7722 36.0763 12.3412C36.31 11.9103 36.1713 11.3599 35.7665 11.111C35.2828 10.8137 30.5338 8.00324 30.2955 7.88985C28.9487 7.24868 27.6406 7.1267 26.2967 7.51593L17.7942 9.97824C15.483 10.6476 13.8582 10.3558 13.553 9.21693C13.3463 8.44581 13.7799 7.42337 14.3959 7.22722L29.9454 2.28484C31.1321 1.90786 32.2923 2.05988 33.3937 2.73721L42.3799 8.26069C42.5745 8.38022 42.8054 8.4121 43.0219 8.3508L44.5552 7.91314L46.3861 15.4453L40.2149 17.2162ZM51.3246 16.9735L48.9478 17.6281C48.8533 17.6545 48.7768 17.6189 48.7399 17.5956C48.7031 17.5723 48.6368 17.5184 48.6127 17.4179L45.4182 4.27515C45.3941 4.17463 45.4269 4.0931 45.4488 4.05387C45.4706 4.01464 45.5213 3.94415 45.6157 3.91841L47.992 3.26375C48.1365 3.22391 48.2902 3.32015 48.3276 3.474L51.5221 16.6167C51.5595 16.77 51.4691 16.9336 51.3246 16.9735ZM50.5254 15.8799C50.4764 16.3256 50.0976 16.6443 49.679 16.5922C49.2604 16.5401 48.961 16.1368 49.0099 15.6911C49.0589 15.2455 49.4377 14.9268 49.8563 14.9789C50.2749 15.0316 50.5743 15.4349 50.5254 15.8799Z" fill="#00357B"/>
</svg>
