<svg width="47" height="49" viewBox="0 0 47 49" fill="none" xmlns="http://www.w3.org/2000/svg">
<path d="M44.7706 25.1284C44.7035 24.955 44.6703 24.7743 44.6703 24.5935C44.6703 24.4116 44.7035 24.2307 44.7706 24.0586L46.5446 19.4969C46.6978 19.1034 46.7719 18.6927 46.7719 18.2894C46.7725 17.1705 46.2044 16.0909 45.2032 15.4502L41.0293 12.7821C40.7148 12.5805 40.4857 12.2719 40.3877 11.9153L39.0852 7.20355C38.674 5.71946 37.3006 4.69891 35.7437 4.6976C35.6853 4.6976 35.627 4.70011 35.568 4.70253L35.6558 4.6976L30.6045 4.94601L30.5172 4.94721C30.1663 4.94721 29.8267 4.8304 29.553 4.61527L25.6719 1.55351C25.0398 1.05429 24.2676 0.802171 23.5006 0.803472C22.7328 0.802171 21.9608 1.05429 21.3274 1.55351L21.328 1.55481L17.4467 4.61518C17.1736 4.8304 16.8328 4.94712 16.4825 4.94712L16.4259 4.94591L11.4298 4.70244H11.4393C11.3709 4.69872 11.31 4.69872 11.256 4.69872C9.69932 4.69872 8.32642 5.71928 7.91528 7.20337L6.61269 11.9151C6.51477 12.2717 6.28571 12.5803 5.97117 12.7819L1.79734 15.4501C0.796108 16.0908 0.227364 17.1716 0.228028 18.2905C0.228028 18.6938 0.302039 19.1032 0.454615 19.4967L2.22983 24.0584C2.29644 24.2305 2.33031 24.4113 2.33031 24.5933C2.33031 24.7741 2.29701 24.9548 2.22983 25.1269L0.455279 29.69C0.302134 30.0821 0.228028 30.4916 0.228028 30.8949C0.227364 32.0139 0.795444 33.0947 1.79734 33.7365L5.97117 36.4049C6.28562 36.6066 6.51477 36.914 6.61269 37.2705L7.91528 41.9823C8.32642 43.4664 9.69989 44.4869 11.256 44.4869C11.31 44.4869 11.3671 44.4869 11.4287 44.4832L16.4079 44.2397H16.4173L16.4852 44.2373C16.8336 44.2385 17.1732 44.3553 17.4468 44.5706L21.3281 47.6334C21.9609 48.1327 22.7323 48.3835 23.5007 48.3835C24.2678 48.3835 25.0399 48.1327 25.6726 47.6334L29.5539 44.5706C29.8276 44.3541 30.1666 44.2373 30.5155 44.2373L30.5903 44.2397L35.5462 44.482L35.5795 44.4832C35.631 44.4856 35.6855 44.4869 35.7439 44.4869C37.3 44.4869 38.6742 43.4676 39.0854 41.9823L40.3879 37.2705C40.4858 36.914 40.7144 36.6066 41.0288 36.4049L45.2033 33.7367C46.2046 33.0949 46.7726 32.0153 46.772 30.8964C46.772 30.4931 46.6979 30.0824 46.5447 29.689L44.7706 25.1284ZM44.1479 32.1555L39.9747 34.8237C39.2635 35.2786 38.7482 35.9733 38.5259 36.7775L37.2234 41.488C37.0425 42.147 36.4317 42.5983 35.7437 42.5983L35.6596 42.597L30.7765 42.3572L30.6918 42.3535C30.6354 42.3511 30.5769 42.3486 30.5153 42.3486C29.7269 42.3486 28.9599 42.613 28.3434 43.0998L24.4622 46.1628C24.1803 46.3841 23.8426 46.4948 23.5005 46.4948C23.1578 46.4948 22.82 46.3841 22.5382 46.1628L18.6569 43.0998C18.0404 42.613 17.2734 42.3486 16.485 42.3486C16.4334 42.3498 16.3745 42.3498 16.3111 42.3535L11.3332 42.597L11.2559 42.5983C10.5686 42.5995 9.95779 42.1458 9.77693 41.4893L8.47444 36.7763C8.25222 35.9733 7.7368 35.2786 7.02497 34.8237L2.8519 32.1555C2.40812 31.8714 2.15705 31.3919 2.15639 30.8951C2.15639 30.7169 2.18903 30.5373 2.25678 30.3627L4.03142 25.801C4.18267 25.4124 4.25867 25.003 4.25867 24.5935C4.25867 24.1841 4.18267 23.7746 4.03142 23.3848L2.25678 18.8242C2.18903 18.6484 2.15639 18.4689 2.15639 18.2906C2.15705 17.7938 2.40746 17.3155 2.85124 17.0314L7.02573 14.3632C7.73689 13.907 8.25231 13.2123 8.47454 12.4094L9.77703 7.69636C9.95788 7.03981 10.5693 6.58603 11.256 6.58733L11.3239 6.58863L11.3452 6.58984L16.2578 6.8296L16.3155 6.83202L16.4825 6.83564C17.2716 6.83564 18.0386 6.57256 18.6563 6.08681L22.5376 3.02384L21.9331 2.28858L22.5383 3.02384C22.8201 2.80128 23.1579 2.6919 23.5006 2.6906C23.8427 2.69181 24.1804 2.80128 24.4623 3.02384L28.3441 6.08551C28.9619 6.57367 29.7296 6.83555 30.5174 6.83555C30.5758 6.83555 30.6292 6.83434 30.6775 6.83313L35.6987 6.58724L35.7439 6.58594C36.4313 6.58594 37.0427 7.03972 37.2235 7.69627L38.5261 12.4093C38.7484 13.2122 39.2637 13.907 39.9749 14.3619L44.1487 17.0313C44.5925 17.3153 44.8436 17.7937 44.8436 18.2892C44.8436 18.4675 44.8116 18.647 44.7426 18.8254L42.9692 23.3859C42.8172 23.7744 42.742 24.184 42.742 24.5934C42.742 25.0029 42.8179 25.4123 42.9692 25.8009L44.7431 30.3614C44.8116 30.5384 44.8436 30.718 44.8436 30.8963C44.8434 31.3919 44.5924 31.8714 44.1479 32.1555Z" fill="#00357B"/>
<path d="M28.4191 16.0836C28.2283 15.7971 27.9056 15.6224 27.5579 15.6224H26.9245C26.5265 15.6224 26.1656 15.8499 25.9974 16.2052L18.5141 32.1481C18.3735 32.4542 18.3962 32.817 18.5832 33.1034C18.7728 33.3899 19.0978 33.5645 19.4463 33.5645H20.0765C20.4758 33.5645 20.8386 33.3382 21.0043 32.9828L28.4887 17.0401C28.6319 16.7341 28.6075 16.3713 28.4191 16.0836Z" fill="#00357B"/>
<path d="M20.6771 23.2029C20.8573 22.6976 20.9118 23.0492 20.9118 21.4569C20.9118 19.8621 20.8573 20.2149 20.6771 19.706C20.2396 18.4444 18.9986 17.6304 17.3432 17.6304C15.689 17.6304 14.4506 18.4444 14.0105 19.706C13.8291 20.215 13.777 19.8621 13.777 21.4569C13.777 23.0491 13.8291 22.6975 14.0105 23.2029C14.4506 24.4694 15.689 25.2797 17.3432 25.2797C18.9986 25.2796 20.2396 24.4694 20.6771 23.2029ZM18.2484 22.6975C18.1178 23.0787 17.7838 23.2791 17.3432 23.2791C16.9043 23.2791 16.5692 23.0787 16.4392 22.6975C16.3614 22.4946 16.3368 22.9987 16.3368 21.4569C16.3368 19.9113 16.3613 20.4154 16.4392 20.2149C16.5692 19.8337 16.9043 19.631 17.3432 19.631C17.7838 19.631 18.1177 19.8338 18.2484 20.2149C18.3268 20.4153 18.3507 19.9112 18.3507 21.4569C18.3507 22.9987 18.3269 22.4946 18.2484 22.6975Z" fill="#00357B"/>
<path d="M29.0527 23.679C27.3968 23.679 26.1577 24.4894 25.7176 25.7521C25.5394 26.2612 25.486 25.9058 25.486 27.5006C25.486 29.0954 25.5393 28.7437 25.7176 29.2466C26.1577 30.5143 27.3968 31.3271 29.0527 31.3271C30.7062 31.3271 31.9491 30.5143 32.3873 29.2466C32.5682 28.7437 32.6196 29.0954 32.6196 27.5006C32.6196 25.9058 32.5682 26.2612 32.3873 25.7521C31.9491 24.4894 30.7062 23.679 29.0527 23.679ZM29.9555 28.7437C29.8281 29.1224 29.4928 29.3253 29.0527 29.3253C28.6127 29.3253 28.277 29.1224 28.147 28.7437C28.0697 28.5421 28.0459 29.0437 28.0459 27.5006C28.0459 25.955 28.0697 26.4616 28.147 26.2612C28.277 25.8776 28.6128 25.6759 29.0527 25.6759C29.4928 25.6759 29.8281 25.8776 29.9555 26.2612C30.0365 26.4616 30.0616 25.9551 30.0616 27.5006C30.0615 29.0438 30.0364 28.5421 29.9555 28.7437Z" fill="#00357B"/>
</svg>
